<svg width="15" height="15" viewBox="0 0 15 15" fill="none" xmlns="http://www.w3.org/2000/svg">
<path d="M11.3539 10.056C11.2693 10.0565 11.1855 10.0403 11.1072 10.0083C11.029 9.97635 10.9578 9.92924 10.8978 9.8697L7.95556 6.92108C7.89584 6.86087 7.82479 6.81308 7.74651 6.78046C7.66822 6.74785 7.58426 6.73106 7.49945 6.73106C7.41465 6.73106 7.33068 6.74785 7.2524 6.78046C7.17412 6.81308 7.10307 6.86087 7.04335 6.92108L4.10114 9.8697C3.98017 9.99067 3.81611 10.0586 3.64503 10.0586C3.47396 10.0586 3.30989 9.99067 3.18893 9.8697C3.06796 9.74874 3 9.58467 3 9.4136C3 9.32889 3.01668 9.24501 3.0491 9.16675C3.08152 9.0885 3.12903 9.01739 3.18893 8.95749L6.13756 6.01529C6.50369 5.66353 6.99172 5.46708 7.49945 5.46708C8.00718 5.46708 8.49522 5.66353 8.86135 6.01529L11.81 8.95749C11.8702 9.01721 11.918 9.08826 11.9506 9.16654C11.9832 9.24483 12 9.32879 12 9.4136C12 9.4984 11.9832 9.58237 11.9506 9.66065C11.918 9.73893 11.8702 9.80998 11.81 9.8697C11.75 9.92924 11.6788 9.97635 11.6005 10.0083C11.5222 10.0403 11.4384 10.0565 11.3539 10.056Z" fill="#16242E"/>
</svg>
