<svg width="15" height="15" viewBox="0 0 15 15" fill="none" xmlns="http://www.w3.org/2000/svg">
<path d="M4.17216 5.98351C4.17216 5.05088 4.54264 4.15646 5.20211 3.49699C5.86157 2.83753 6.756 2.46704 7.68863 2.46704C8.62125 2.46704 9.51568 2.83753 10.1751 3.49699C10.8346 4.15646 11.2051 5.05088 11.2051 5.98351C11.2051 7.91065 11.712 8.8239 12.0592 9.22334C12.1284 9.30299 12.0592 9.49998 11.9536 9.49998H3.42361C3.31808 9.49998 3.24888 9.30299 3.31809 9.22334C3.66521 8.8239 4.17216 7.91065 4.17216 5.98351Z" stroke="#16242E" stroke-width="0.879117"/>
<path d="M6.51636 11.467C6.51636 11.8779 6.64719 12.2719 6.88008 12.5624C7.11297 12.8529 7.42883 13.0162 7.75818 13.0162C8.08753 13.0162 8.40339 12.8529 8.63628 12.5624C8.86917 12.2719 9 11.8779 9 11.467" stroke="#16242E" stroke-width="0.879117" stroke-linecap="round"/>
</svg>
