<svg width="15" height="15" viewBox="0 0 15 15" fill="none" xmlns="http://www.w3.org/2000/svg">
<path d="M5.90844 7.20042C6.98846 7.20042 7.864 6.32489 7.864 5.24486C7.864 4.16484 6.98846 3.28931 5.90844 3.28931C4.82841 3.28931 3.95288 4.16484 3.95288 5.24486C3.95288 6.32489 4.82841 7.20042 5.90844 7.20042Z" stroke="#16242E" stroke-linecap="round"/>
<path d="M2.2417 11.9669C2.2417 9.95024 3.8917 8.30024 5.90837 8.30024C7.92504 8.30024 9.57504 9.95024 9.57504 11.9669" stroke="#16242E" stroke-linecap="round"/>
<path d="M10.7973 7.38376C11.6411 7.38376 12.3251 6.69975 12.3251 5.85598C12.3251 5.01221 11.6411 4.3282 10.7973 4.3282C9.95354 4.3282 9.26953 5.01221 9.26953 5.85598C9.26953 6.69975 9.95354 7.38376 10.7973 7.38376Z" stroke="#16242E" stroke-linecap="round"/>
<path d="M13.2417 11.3556C13.2417 10.1334 12.325 8.9112 10.7972 8.9112" stroke="#16242E" stroke-linecap="round"/>
</svg>
